<?xml version="1.0" encoding="UTF-8" standalone="no"?>
<!-- Created with Inkscape (http://www.inkscape.org/) -->

<svg
   xmlns:dc="http://purl.org/dc/elements/1.1/"
   xmlns:cc="http://creativecommons.org/ns#"
   xmlns:rdf="http://www.w3.org/1999/02/22-rdf-syntax-ns#"
   xmlns:svg="http://www.w3.org/2000/svg"
   xmlns="http://www.w3.org/2000/svg"
   xmlns:xlink="http://www.w3.org/1999/xlink"
   xmlns:sodipodi="http://sodipodi.sourceforge.net/DTD/sodipodi-0.dtd"
   xmlns:inkscape="http://www.inkscape.org/namespaces/inkscape"
   width="256"
   height="256"
   id="svg2"
   sodipodi:version="0.32"
   inkscape:version="0.48.3.1 r9886"
   version="1.0"
   sodipodi:docname="mdh_pdf_doc.svg"
   inkscape:output_extension="org.inkscape.output.svg.inkscape"
   inkscape:export-filename="/home/mholmes/WorkData/tei/council/new_glines_toc/e-book-icons/mdh_pdf_doc_32x32.png"
   inkscape:export-xdpi="11.25"
   inkscape:export-ydpi="11.25">
  <defs
     id="defs4">
    <linearGradient
       inkscape:collect="always"
       id="linearGradient3288">
      <stop
         style="stop-color:#ffffff;stop-opacity:1;"
         offset="0"
         id="stop3290" />
      <stop
         style="stop-color:#ffffff;stop-opacity:0;"
         offset="1"
         id="stop3292" />
    </linearGradient>
    <linearGradient
       id="linearGradient3188">
      <stop
         style="stop-color:#dee6e6;stop-opacity:1;"
         offset="0"
         id="stop3190" />
      <stop
         id="stop3206"
         offset="0.5"
         style="stop-color:#f4f4f4;stop-opacity:1;" />
      <stop
         style="stop-color:#f4f4f4;stop-opacity:1;"
         offset="0.75"
         id="stop3208" />
      <stop
         id="stop3210"
         offset="0.875"
         style="stop-color:#f4f4f4;stop-opacity:1;" />
      <stop
         style="stop-color:#f4f4f4;stop-opacity:1;"
         offset="0.9375"
         id="stop3212" />
      <stop
         id="stop3214"
         offset="0.96875"
         style="stop-color:#f4f4f4;stop-opacity:1;" />
      <stop
         style="stop-color:#e6e6e6;stop-opacity:1;"
         offset="1"
         id="stop3192" />
    </linearGradient>
    <linearGradient
       inkscape:collect="always"
       id="linearGradient3180">
      <stop
         style="stop-color:#f2f2f2;stop-opacity:1"
         offset="0"
         id="stop3182" />
      <stop
         style="stop-color:#999999;stop-opacity:1"
         offset="1"
         id="stop3184" />
    </linearGradient>
    <inkscape:perspective
       sodipodi:type="inkscape:persp3d"
       inkscape:vp_x="0 : 526.18109 : 1"
       inkscape:vp_y="0 : 1000 : 0"
       inkscape:vp_z="744.09448 : 526.18109 : 1"
       inkscape:persp3d-origin="372.04724 : 350.78739 : 1"
       id="perspective10" />
    <linearGradient
       inkscape:collect="always"
       xlink:href="#linearGradient3180"
       id="linearGradient3186"
       x1="200.50452"
       y1="43.542408"
       x2="173.57047"
       y2="70.476456"
       gradientUnits="userSpaceOnUse"
       gradientTransform="translate(-0.1327121,-0.2654242)" />
    <linearGradient
       inkscape:collect="always"
       xlink:href="#linearGradient3188"
       id="linearGradient3194"
       x1="139.15787"
       y1="26.516821"
       x2="139.15787"
       y2="236.48891"
       gradientUnits="userSpaceOnUse" />
    <filter
       inkscape:collect="always"
       id="filter3256">
      <feGaussianBlur
         inkscape:collect="always"
         stdDeviation="0.49938219"
         id="feGaussianBlur3258" />
    </filter>
    <linearGradient
       inkscape:collect="always"
       xlink:href="#linearGradient3188"
       id="linearGradient3276"
       gradientUnits="userSpaceOnUse"
       x1="139.15787"
       y1="26.516821"
       x2="139.15787"
       y2="236.48891" />
    <linearGradient
       inkscape:collect="always"
       xlink:href="#linearGradient3180"
       id="linearGradient3278"
       gradientUnits="userSpaceOnUse"
       gradientTransform="translate(-0.1327121,-0.2654242)"
       x1="200.50452"
       y1="43.542408"
       x2="173.57047"
       y2="70.476456" />
    <filter
       inkscape:collect="always"
       id="filter3282"
       x="-0.093994083"
       width="1.1879882"
       y="-2.1179999"
       height="5.2359999">
      <feGaussianBlur
         inkscape:collect="always"
         stdDeviation="7.0271068"
         id="feGaussianBlur3284" />
    </filter>
    <linearGradient
       inkscape:collect="always"
       xlink:href="#linearGradient3288"
       id="linearGradient3294"
       x1="76.045853"
       y1="40.896454"
       x2="88.294067"
       y2="86.607414"
       gradientUnits="userSpaceOnUse"
       gradientTransform="matrix(0.9831974,0,0,0.9831974,1.4801194,1.6871079)" />
    <linearGradient
       inkscape:collect="always"
       xlink:href="#linearGradient3288"
       id="linearGradient3297"
       gradientUnits="userSpaceOnUse"
       gradientTransform="matrix(0.9831974,0,0,0.9831974,1.4801194,1.6871079)"
       x1="76.045853"
       y1="40.896454"
       x2="84.049576"
       y2="70.766754" />
    <linearGradient
       inkscape:collect="always"
       xlink:href="#linearGradient3180"
       id="linearGradient3085"
       gradientUnits="userSpaceOnUse"
       gradientTransform="matrix(0.8934962,0,0,0.8934962,16.605076,7.3002977)"
       x1="200.50452"
       y1="43.542408"
       x2="173.57047"
       y2="70.476456" />
    <linearGradient
       inkscape:collect="always"
       xlink:href="#linearGradient3188"
       id="linearGradient3090"
       gradientUnits="userSpaceOnUse"
       x1="139.15787"
       y1="26.516821"
       x2="139.15787"
       y2="236.48891"
       gradientTransform="matrix(0.8934962,0,0,0.8934962,16.723654,7.5374532)" />
  </defs>
  <sodipodi:namedview
     id="base"
     pagecolor="#ffffff"
     bordercolor="#666666"
     borderopacity="1.0"
     inkscape:pageopacity="0.0"
     inkscape:pageshadow="2"
     inkscape:zoom="2.6640625"
     inkscape:cx="58.932551"
     inkscape:cy="128"
     inkscape:document-units="px"
     inkscape:current-layer="layer1"
     showgrid="false"
     inkscape:window-width="1324"
     inkscape:window-height="1004"
     inkscape:window-x="0"
     inkscape:window-y="27"
     inkscape:window-maximized="0" />
  <g
     inkscape:label="Camada 1"
     inkscape:groupmode="layer"
     id="layer1">
    <rect
       style="fill:#1a1a1a;fill-opacity:1;stroke:none;filter:url(#filter3282)"
       id="rect3280"
       width="179.42679"
       height="7.9627275"
       x="38.286606"
       y="220.85081"
       rx="4.9292927"
       ry="2.1314225" />
    <path
       style="fill:url(#linearGradient3090);fill-opacity:1.0;stroke:none"
       d="m 49.610637,27.186459 c 44.295568,1.088283 89.311373,4.337262 131.956523,0.47431 l 27.50186,25.489535 c -0.83254,54.699256 -6.92116,108.193406 -1.22647,166.156276 -85.81125,4.41148 -164.760525,6.41266 -160.766226,-1.81587 1.931474,-105.4604 1.807981,-112.54156 2.534313,-190.304251 z"
       id="rect2385"
       sodipodi:nodetypes="cccccc"
       inkscape:connector-curvature="0" />
    <path
       style="fill:#808080;fill-opacity:1;stroke:none;filter:url(#filter3256)"
       d="m 184.43956,24.121795 2.4485,42.065297 c 4.89971,-4.380126 12.5185,-12.742502 27.39117,-14.130742 L 184.43956,24.121795 z"
       id="path3236"
       sodipodi:nodetypes="cccc"
       inkscape:connector-curvature="0"
       transform="matrix(0.8934962,0,0,0.8934962,16.723654,7.5374532)" />
    <path
       sodipodi:nodetypes="cccc"
       id="path3168"
       d="m 181.22325,27.836794 3.37772,34.342171 c 4.37787,-3.913626 10.8558,-7.256523 24.14447,-8.49691 L 181.22325,27.836794 z"
       style="fill:url(#linearGradient3085);fill-opacity:1;stroke:none"
       inkscape:connector-curvature="0" />
    <path
       id="path3172"
       d="m 68.6385,150.59047 113.52186,0"
       style="fill:#cccccc;fill-opacity:1;stroke:#999999;stroke-width:3.41248012;stroke-linecap:round;stroke-linejoin:round;stroke-miterlimit:4;stroke-opacity:1;stroke-dasharray:none;stroke-dashoffset:0.774"
       inkscape:connector-curvature="0" />
    <path
       style="fill:#cccccc;fill-opacity:1;stroke:#999999;stroke-width:3.41248012;stroke-linecap:round;stroke-linejoin:round;stroke-miterlimit:4;stroke-opacity:1;stroke-dasharray:none;stroke-dashoffset:0.774"
       d="m 68.6385,167.10743 113.52186,0"
       id="path3174"
       inkscape:connector-curvature="0" />
    <path
       id="path3176"
       d="m 68.6385,183.62439 113.52186,0"
       style="fill:#cccccc;fill-opacity:1;stroke:#999999;stroke-width:3.41248012;stroke-linecap:round;stroke-linejoin:round;stroke-miterlimit:4;stroke-opacity:1;stroke-dasharray:none;stroke-dashoffset:0.774"
       inkscape:connector-curvature="0" />
    <path
       style="fill:#cccccc;fill-opacity:1;stroke:#999999;stroke-width:3.41248012;stroke-linecap:round;stroke-linejoin:round;stroke-miterlimit:4;stroke-opacity:1;stroke-dasharray:none;stroke-dashoffset:0.774"
       d="m 68.6385,200.14135 113.52186,0"
       id="path3178"
       inkscape:connector-curvature="0" />
    <path
       id="path3198"
       d="m 164.26149,101.03958 16.67403,0"
       style="fill:#cccccc;fill-opacity:1;stroke:#999999;stroke-width:2.29274106;stroke-linecap:round;stroke-linejoin:round;stroke-miterlimit:4;stroke-opacity:1;stroke-dasharray:none;stroke-dashoffset:0.774"
       inkscape:connector-curvature="0" />
    <path
       style="fill:#cccccc;fill-opacity:1;stroke:#999999;stroke-width:2.29274106;stroke-linecap:round;stroke-linejoin:round;stroke-miterlimit:4;stroke-opacity:1;stroke-dasharray:none;stroke-dashoffset:0.774"
       d="m 164.26149,84.522619 16.67403,0"
       id="path3200"
       inkscape:connector-curvature="0" />
    <path
       id="path3202"
       d="m 164.26149,68.005657 16.67403,0"
       style="fill:#cccccc;fill-opacity:1;stroke:#999999;stroke-width:2.29274106;stroke-linecap:round;stroke-linejoin:round;stroke-miterlimit:4;stroke-opacity:1;stroke-dasharray:none;stroke-dashoffset:0.774"
       inkscape:connector-curvature="0" />
    <path
       style="fill:#cccccc;fill-opacity:1;stroke:#999999;stroke-width:2.29274106;stroke-linecap:round;stroke-linejoin:round;stroke-miterlimit:4;stroke-opacity:1;stroke-dasharray:none;stroke-dashoffset:0.774"
       d="m 164.26149,51.488697 16.67403,0"
       id="path3204"
       inkscape:connector-curvature="0" />
    <path
       id="path3198-7"
       d="m 164.26137,134.01215 16.67403,0"
       style="fill:#cccccc;fill-opacity:1;stroke:#999999;stroke-width:2.29274106;stroke-linecap:round;stroke-linejoin:round;stroke-miterlimit:4;stroke-opacity:1;stroke-dasharray:none;stroke-dashoffset:0.774"
       inkscape:connector-curvature="0" />
    <path
       style="fill:#cccccc;fill-opacity:1;stroke:#999999;stroke-width:2.29274106;stroke-linecap:round;stroke-linejoin:round;stroke-miterlimit:4;stroke-opacity:1;stroke-dasharray:none;stroke-dashoffset:0.774"
       d="m 164.26137,117.49518 16.67403,0"
       id="path3200-2"
       inkscape:connector-curvature="0" />
    <g
       transform="matrix(0.35554879,0,0,0.3637237,30.289394,-8.3550932)"
       id="g32">
      <path
         style="fill:#f91d0a"
         inkscape:connector-curvature="0"
         id="path4463"
         d="m 115.929,262.786 c 11.188,-21.929 23.903,-46.636 34.08,-71.441 l 0,0 4.024,-9.792 C 140.74,130.969 132.769,90.365 139.89,64.11 l 0,0 c 1.917,-6.845 9.845,-10.998 18.321,-10.998 l 0,0 5.165,0.076 h 0.948 c 11.604,-0.178 17.068,14.583 17.688,20.322 l 0,0 c 1.024,9.558 -3.398,25.734 -3.398,25.734 l 0,0 c 0,-6.532 0.256,-17.087 -3.867,-26.195 l 0,0 C 169.948,62.51 165.364,56.214 161.254,55.216 l 0,0 c -2.075,1.386 -4.092,4.256 -4.783,9.777 l 0,0 c -1.431,7.741 -1.86,17.512 -1.86,22.549 l 0,0 c 0,17.796 3.504,41.285 10.39,65.499 l 0,0 c 1.299,-3.749 2.442,-7.351 3.351,-10.726 l 0,0 c 1.412,-5.319 10.389,-40.578 10.389,-40.578 l 0,0 c 0,0 -2.262,46.935 -5.422,61.136 l 0,0 c -0.677,3.001 -1.424,5.969 -2.202,9.007 l 0,0 c 11.355,31.727 29.652,60.044 51.479,80.424 l 0,0 c 8.606,8.043 19.475,14.528 29.762,20.439 l 0,0 c 22.465,-3.21 43.149,-4.726 60.405,-4.535 l 0,0 c 22.894,0.302 39.699,3.688 46.504,10.391 l 0,0 c 3.332,3.258 4.684,7.193 5.104,11.604 l 0,0 c 0.1,1.716 -0.736,5.748 -0.981,6.76 l 0,0 c 0.245,-1.225 0.245,-7.249 -18.133,-13.115 l 0,0 c -14.474,-4.627 -41.563,-4.483 -74.068,-1.023 l 0,0 c 37.597,18.394 74.225,27.533 85.833,22.054 l 0,0 c 2.838,-1.383 6.28,-6.099 6.28,-6.099 l 0,0 c 0,0 -2.046,9.296 -3.515,11.62 l 0,0 c -1.875,2.525 -5.553,5.26 -9.04,6.182 l 0,0 c -18.332,4.891 -66.051,-6.427 -107.651,-30.197 l 0,0 c -46.478,6.845 -97.521,19.49 -138.436,32.91 l 0,0 C 64.453,389.758 34.225,422.12 9.634,409.809 l 0,0 -9.041,-4.546 c -3.675,-2.102 -4.236,-7.219 -3.386,-11.386 l 0,0 C 0.074,379.85 17.663,358.723 52.994,337.626 l 0,0 c 3.803,-2.301 20.743,-11.258 20.743,-11.258 l 0,0 c 0,0 -12.541,12.138 -15.479,14.52 l 0,0 C 30.058,363.997 9.245,393.07 9.764,404.341 l 0,0 0.102,0.983 C 33.821,401.91 69.745,353.152 115.929,262.786 m 14.636,7.494 c -7.714,14.528 -15.254,27.998 -22.215,40.366 l 0,0 c 38.506,-16.133 79.95,-26.457 119.401,-33.791 l 0,0 c -5.302,-3.661 -10.449,-7.538 -15.292,-11.636 l 0,0 c -21.725,-18.393 -38.288,-41.34 -50.294,-65.487 l 0,0 c -7.614,20.513 -16.668,42.311 -31.6,70.548" />
    </g>
  </g>
  <metadata
     id="metadata52">
    <rdf:RDF>
      <cc:Work>
        <dc:format>image/svg+xml</dc:format>
        <dc:type
           rdf:resource="http://purl.org/dc/dcmitype/StillImage" />
        <cc:license
           rdf:resource="http://creativecommons.org/licenses/publicdomain/" />
        <dc:publisher>
          <cc:Agent
             rdf:about="http://openclipart.org/">
            <dc:title>Open Clip Art Library</dc:title>
          </cc:Agent>
        </dc:publisher>
        <dc:title></dc:title>
        <dc:date>2009-10-11T21:37:14</dc:date>
        <dc:description>A simple New Document icon.</dc:description>
        <dc:source>http://openclipart.org/detail/27766/new-document-by-ronoaldo</dc:source>
        <dc:creator>
          <cc:Agent>
            <dc:title>ronoaldo</dc:title>
          </cc:Agent>
        </dc:creator>
        <dc:subject>
          <rdf:Bag>
            <rdf:li>clip art</rdf:li>
            <rdf:li>clipart</rdf:li>
            <rdf:li>colour</rdf:li>
            <rdf:li>colour</rdf:li>
            <rdf:li>icon</rdf:li>
            <rdf:li>icon</rdf:li>
            <rdf:li>image</rdf:li>
            <rdf:li>media</rdf:li>
            <rdf:li>new</rdf:li>
            <rdf:li>new</rdf:li>
            <rdf:li>png</rdf:li>
            <rdf:li>public domain</rdf:li>
            <rdf:li>svg</rdf:li>
          </rdf:Bag>
        </dc:subject>
      </cc:Work>
      <cc:License
         rdf:about="http://creativecommons.org/licenses/publicdomain/">
        <cc:permits
           rdf:resource="http://creativecommons.org/ns#Reproduction" />
        <cc:permits
           rdf:resource="http://creativecommons.org/ns#Distribution" />
        <cc:permits
           rdf:resource="http://creativecommons.org/ns#DerivativeWorks" />
      </cc:License>
    </rdf:RDF>
  </metadata>
</svg>
