<?xml version="1.0" encoding="UTF-8" standalone="no"?>
<!-- Created with Inkscape (http://www.inkscape.org/) -->

<svg
   xmlns:dc="http://purl.org/dc/elements/1.1/"
   xmlns:cc="http://creativecommons.org/ns#"
   xmlns:rdf="http://www.w3.org/1999/02/22-rdf-syntax-ns#"
   xmlns:svg="http://www.w3.org/2000/svg"
   xmlns="http://www.w3.org/2000/svg"
   xmlns:sodipodi="http://sodipodi.sourceforge.net/DTD/sodipodi-0.dtd"
   xmlns:inkscape="http://www.inkscape.org/namespaces/inkscape"
   id="svg8499"
   version="1.1"
   inkscape:version="0.48.3.1 r9886"
   width="438.61045"
   height="473.77056"
   xml:space="preserve"
   sodipodi:docname="logo.pdf"><metadata
     id="metadata8505"><rdf:RDF><cc:Work
         rdf:about=""><dc:format>image/svg+xml</dc:format><dc:type
           rdf:resource="http://purl.org/dc/dcmitype/StillImage" /><dc:title></dc:title></cc:Work></rdf:RDF></metadata><defs
     id="defs8503" /><sodipodi:namedview
     pagecolor="#ffffff"
     bordercolor="#666666"
     borderopacity="1"
     objecttolerance="10"
     gridtolerance="10"
     guidetolerance="10"
     inkscape:pageopacity="0"
     inkscape:pageshadow="2"
     inkscape:window-width="1261"
     inkscape:window-height="832"
     id="namedview8501"
     showgrid="false"
     inkscape:zoom="0.49813141"
     inkscape:cx="-35.647585"
     inkscape:cy="236.88528"
     inkscape:window-x="0"
     inkscape:window-y="27"
     inkscape:window-maximized="0"
     inkscape:current-layer="g8507" /><g
     id="g8507"
     inkscape:groupmode="layer"
     inkscape:label="logo"
     transform="matrix(1.25,0,0,-1.25,-170.48401,848.96221)"><g
       id="g8509"
       transform="scale(1,-1)"><path
         d="m 155.26953,-423.53125 c 0,0 17.62012,-10.23975 17.62012,-10.23975 0,0 0.67139,1.18116 0.67139,1.18116 0,0 -17.62012,10.24023 -17.62012,10.24023 0,0 -0.67139,-1.18164 -0.67139,-1.18164 z"
         style="fill:#efd232;fill-opacity:1;fill-rule:nonzero;stroke:none"
         id="path8511" /><path
         d="m 155.94092,-422.34961 c 0,0 17.62012,-10.24023 17.62012,-10.24023 0,0 100.47216,60.76269 100.47216,60.76269 0,0 -17.62011,10.24024 -17.62011,10.24024 0,0 -100.47217,-60.7627 -100.47217,-60.7627 z"
         style="fill:#dfc630;fill-opacity:1;fill-rule:nonzero;stroke:none"
         id="path8513" /><path
         d="m 256.41309,-361.58691 c 0,0 17.62011,-10.24024 17.62011,-10.24024 0,0 19.16651,33.7207 19.16651,33.7207 0,0 -17.62012,10.23926 -17.62012,10.23926 0,0 -19.1665,-33.71972 -19.1665,-33.71972 z"
         style="fill:#efd232;fill-opacity:1;fill-rule:nonzero;stroke:none"
         id="path8515" /><path
         d="m 155.88672,-538.44922 c 0,0 17.62012,-10.24023 17.62012,-10.24023 0,0 -0.61719,114.91845 -0.61719,114.91845 0,0 -17.62012,10.23975 -17.62012,10.23975 0,0 0.61719,-114.91797 0.61719,-114.91797 z"
         style="fill:#d3bd2e;fill-opacity:1;fill-rule:nonzero;stroke:none"
         id="path8517" /><path
         d="m 136.38721,-572.75586 c 0,0 17.62011,-10.24023 17.62011,-10.24023 0,0 19.49952,34.30664 19.49952,34.30664 0,0 -17.62012,10.24023 -17.62012,10.24023 0,0 -19.49951,-34.30664 -19.49951,-34.30664 z"
         style="fill:#efd232;fill-opacity:1;fill-rule:nonzero;stroke:none"
         id="path8519" /><path
         d="m 136.38721,-572.75586 c 0,0 19.49951,34.30664 19.49951,34.30664 0,0 -0.61719,114.91797 -0.61719,114.91797 0,0 0.67139,1.18164 0.67139,1.18164 0,0 100.47217,60.7627 100.47217,60.7627 0,0 19.1665,33.71972 19.1665,33.71972 0,0 -123.68848,-75.25293 -123.68848,-75.25293 0,0 -15.12841,-26.6167 -15.12841,-26.6167 0,0 -0.37549,-143.01904 -0.37549,-143.01904 z"
         style="fill:#b7a82c;fill-opacity:1;fill-rule:nonzero;stroke:none"
         id="path8521" /><path
         d="m 451.94141,-566.14111 c 0,0 17.61914,-10.23975 17.61914,-10.23975 0,0 0.0469,142.42969 0.0469,142.42969 0,0 -17.62012,10.24023 -17.62012,10.24023 0,0 -0.0459,-142.43017 -0.0459,-142.43017 z"
         style="fill:#d3bd2e;fill-opacity:1;fill-rule:nonzero;stroke:none"
         id="path8523" /><path
         d="m 436.8125,-592.75732 c 0,0 17.62012,-10.23975 17.62012,-10.23975 0,0 15.12793,26.61621 15.12793,26.61621 0,0 -17.61914,10.23975 -17.61914,10.23975 0,0 -15.12891,-26.61621 -15.12891,-26.61621 z"
         style="fill:#efd232;fill-opacity:1;fill-rule:nonzero;stroke:none"
         id="path8525" /><path
         d="m 312.79492,-668.60059 c 0,0 17.62012,-10.23974 17.62012,-10.23974 0,0 124.01758,75.84326 124.01758,75.84326 0,0 -17.62012,10.23975 -17.62012,10.23975 0,0 -124.01758,-75.84327 -124.01758,-75.84327 z"
         style="fill:#e0c730;fill-opacity:1;fill-rule:nonzero;stroke:none"
         id="path8527" /><path
         d="m 312.79492,-668.60059 c 0,0 124.01758,75.84327 124.01758,75.84327 0,0 15.12891,26.61621 15.12891,26.61621 0,0 0.0459,142.43017 0.0459,142.43017 0,0 -19.16601,-33.72021 -19.16601,-33.72021 0,0 0.2832,-115.50489 0.2832,-115.50489 0,0 -0.6709,-1.18115 -0.6709,-1.18115 0,0 -100.13867,-60.17627 -100.13867,-60.17627 0,0 -19.5,-34.30713 -19.5,-34.30713 z"
         style="fill:#b7a82c;fill-opacity:1;fill-rule:nonzero;stroke:none"
         id="path8529" /><g
         id="g8531"
         transform="scale(1,-1)"><text
           transform="matrix(0.87347002,0,0,-1,194.01855,456.94922)"
           id="text8533"><tspan
             style="fill:#231f20;fill-opacity:1;fill-rule:nonzero;stroke:none;font-family:Arial Black;font-variant:normal;font-weight:900;font-size:132.82101;writing-mode:lr;-inkscape-font-specification:Arial-Black"
             x="0 95.89676922 191.79353844"
             y="0"
             sodipodi:role="line"
             id="tspan8535">TEI</tspan></text>
<g
           id="g8537"
           transform="scale(1,-1)"><path
             d="m 295.39502,-315.97949 c 0,0 0.009,3.11035 0.009,3.11035 0,0 -2.81592,1.62598 -2.81592,1.62598 0,0 0.0269,9.50097 0.0269,9.50097 0,0 -2.75147,1.58887 -2.75147,1.58887 0,0 -0.0273,-9.50098 -0.0273,-9.50098 0,0 -2.80908,1.6211 -2.80908,1.6211 0,0 -0.009,-3.11035 -0.009,-3.11035 0,0 8.37695,-4.83594 8.37695,-4.83594 z"
             style="fill:#231f20;fill-opacity:1;fill-rule:nonzero;stroke:none"
             id="path8539" /><path
             d="m 304.00781,-320.95215 c 0,0 0.007,2.69922 0.007,2.69922 0,0 -4.61524,2.66504 -4.61524,2.66504 0,0 0.005,1.98926 0.005,1.98926 0,0 4.28418,-2.47364 4.28418,-2.47364 0,0 0.008,2.5752 0.008,2.5752 0,0 -4.28418,2.47363 -4.28418,2.47363 0,0 0.007,2.49414 0.007,2.49414 0,0 4.74414,-2.73925 4.74414,-2.73925 0,0 0.008,2.85351 0.008,2.85351 0,0 -7.48926,4.32422 -7.48926,4.32422 0,0 -0.0356,-12.61133 -0.0356,-12.61133 0,0 7.36181,-4.25 7.36181,-4.25 z"
             style="fill:#231f20;fill-opacity:1;fill-rule:nonzero;stroke:none"
             id="path8541" /><path
             d="m 314.14648,-326.80664 c 0,0 -2.74707,7.70801 -2.74707,7.70801 0,0 3.04395,4.75293 3.04395,4.75293 0,0 -3.07715,1.77636 -3.07715,1.77636 0,0 -1.77344,-3.03222 -1.77344,-3.03222 0,0 -1.75097,5.06738 -1.75097,5.06738 0,0 -3.08399,1.78027 -3.08399,1.78027 0,0 3.06543,-8.35351 3.06543,-8.35351 0,0 -2.81347,-4.42383 -2.81347,-4.42383 0,0 3.03906,-1.75488 3.03906,-1.75488 0,0 1.58203,2.97461 1.58203,2.97461 0,0 1.52148,-4.76661 1.52148,-4.76661 0,0 2.99414,-1.72851 2.99414,-1.72851 z"
             style="fill:#231f20;fill-opacity:1;fill-rule:nonzero;stroke:none"
             id="path8543" /><path
             d="m 323.04688,-331.94531 c 0,0 0.009,3.11035 0.009,3.11035 0,0 -2.8164,1.62598 -2.8164,1.62598 0,0 0.0273,9.50097 0.0273,9.50097 0,0 -2.74609,1.58496 -2.74609,1.58496 0,0 -0.0264,-9.50097 -0.0264,-9.50097 0,0 -2.81543,1.625 -2.81543,1.625 0,0 -0.009,-3.10938 -0.009,-3.10938 0,0 8.37696,-4.83691 8.37696,-4.83691 z"
             style="fill:#231f20;fill-opacity:1;fill-rule:nonzero;stroke:none"
             id="path8545" /><path
             d="m 335.80957,-339.31445 c 0,0 0.007,2.69922 0.007,2.69922 0,0 -4.60938,2.6621 -4.60938,2.6621 0,0 0.006,1.98829 0.006,1.98829 0,0 4.27734,-2.46973 4.27734,-2.46973 0,0 0.008,2.57519 0.008,2.57519 0,0 -4.27832,2.46973 -4.27832,2.46973 0,0 0.007,2.49414 0.007,2.49414 0,0 4.74414,-2.73926 4.74414,-2.73926 0,0 0.009,2.8545 0.009,2.8545 0,0 -7.49609,4.32812 -7.49609,4.32812 0,0 -0.0352,-12.6123 -0.0352,-12.6123 0,0 7.36133,-4.25 7.36133,-4.25 z"
             style="fill:#231f20;fill-opacity:1;fill-rule:nonzero;stroke:none"
             id="path8547" /><path
             d="m 345.97363,-345.18359 c 0,0 0.0352,12.6123 0.0352,12.6123 0,0 -2.59863,1.5 -2.59863,1.5 0,0 -3.33887,-5.00879 -3.33887,-5.00879 0,0 0.0195,6.92578 0.0195,6.92578 0,0 -2.59863,1.5 -2.59863,1.5 0,0 -0.0352,-12.61133 -0.0352,-12.61133 0,0 2.5791,-1.48925 2.5791,-1.48925 0,0 3.3584,5.04199 3.3584,5.04199 0,0 -0.0195,-6.96973 -0.0195,-6.96973 0,0 2.59863,-1.50097 2.59863,-1.50097 z"
             style="fill:#231f20;fill-opacity:1;fill-rule:nonzero;stroke:none"
             id="path8549" /><path
             d="m 351.98047,-348.85742 c 1.12402,-0.64844 2,-0.83203 2.64648,-0.5586 0.63965,0.27051 1.1211,0.97754 1.43164,2.12793 0,0 -2.43652,2.17871 -2.43652,2.17871 -0.084,-0.33398 -0.17383,-0.56835 -0.26465,-0.69238 -0.15332,-0.21289 -0.3457,-0.33691 -0.5625,-0.37304 -0.22461,-0.0322 -0.47363,0.0303 -0.74804,0.18945 -0.62012,0.35742 -1.09083,0.99023 -1.4209,1.88574 -0.24707,0.67188 -0.36621,1.57129 -0.36328,2.69336 0.004,1.39453 0.15332,2.2627 0.45507,2.61035 0.29493,0.34375 0.7168,0.3584 1.25977,0.0449 0.52344,-0.30273 0.91894,-0.73632 1.18555,-1.30957 0.2666,-0.57324 0.46289,-1.28906 0.58203,-2.1582 0,0 2.41699,-0.35938 2.41699,-0.35938 -0.15723,1.04493 -0.41016,1.99317 -0.75977,2.8418 -0.34277,0.83692 -0.77539,1.57129 -1.28613,2.19727 -0.51562,0.62109 -1.17285,1.16894 -1.96387,1.62597 -0.9707,0.56055 -1.75683,0.81641 -2.37109,0.76661 -0.61426,-0.042 -1.14551,-0.4336 -1.5957,-1.17286 -0.44336,-0.75097 -0.6709,-1.90527 -0.67481,-3.46777 -0.006,-2.07715 0.37989,-3.90137 1.16114,-5.47754 0.77636,-1.56543 1.8789,-2.76758 3.30859,-3.59277 z"
             style="fill:#231f20;fill-opacity:1;fill-rule:nonzero;stroke:none"
             id="path8551" /><path
             d="m 363.1416,-345.9834 c 0.32422,-0.73047 0.48145,-1.79883 0.47656,-3.20801 -0.003,-1.1875 -0.17089,-1.958 -0.51171,-2.30566 -0.33887,-0.34766 -0.79981,-0.36035 -1.38086,-0.0254 -0.55567,0.32031 -1.00098,0.85742 -1.33106,1.60644 -0.33789,0.7461 -0.50098,1.76661 -0.49805,3.04297 0.004,1.26953 0.17286,2.09082 0.50586,2.44922 0.34082,0.36133 0.79493,0.37891 1.36914,0.0469 0.58692,-0.33887 1.04688,-0.87598 1.37012,-1.60645 m 2.00879,-8.78906 c 0.80762,0.66601 1.21484,2.01074 1.2207,4.03613 0.004,1.46778 -0.17187,2.78223 -0.51953,3.92285 -0.34863,1.14258 -0.85156,2.16797 -1.50781,3.0752 -0.66211,0.9043 -1.48535,1.64355 -2.47461,2.21484 -1.00195,0.5791 -1.83301,0.83008 -2.49219,0.75586 -0.65918,-0.0674 -1.19726,-0.47754 -1.6084,-1.2168 -0.4121,-0.74707 -0.61914,-1.85449 -0.62402,-3.32226 -0.006,-2.05469 0.39844,-3.88965 1.2002,-5.49805 0.80761,-1.61328 1.93652,-2.84472 3.3789,-3.67871 1.48145,-0.85449 2.62598,-0.95019 3.42676,-0.28906 z"
             style="fill:#231f20;fill-opacity:1;fill-rule:nonzero;stroke:none"
             id="path8553" /><path
             d="m 373.12012,-352.30371 c 0.13867,-0.53516 0.20019,-1.29883 0.19726,-2.31055 -0.004,-1.34277 -0.15234,-2.16894 -0.46093,-2.49023 -0.30762,-0.31446 -0.81934,-0.26953 -1.52149,0.13672 0,0 -0.68262,0.39453 -0.68262,0.39453 0,0 0.0195,6.90332 0.0195,6.90332 0,0 0.66894,-0.38672 0.66894,-0.38672 0.56934,-0.32813 0.97754,-0.65137 1.21973,-0.97559 0.23535,-0.31933 0.42578,-0.74609 0.55957,-1.27148 m 2.74414,-6.30957 c 0.14941,0.67871 0.22754,1.45605 0.23047,2.31445 0.003,1.34278 -0.1084,2.45801 -0.31739,3.32129 -0.21484,0.86524 -0.51269,1.66309 -0.89453,2.38281 -0.38769,0.73047 -0.7959,1.29688 -1.23535,1.71973 -0.59961,0.57422 -1.14844,1.00879 -1.63965,1.29199 0,0 -4.08008,2.35547 -4.08008,2.35547 0,0 -0.0351,-12.61133 -0.0351,-12.61133 0,0 4.0791,-2.35547 4.0791,-2.35547 0.80469,-0.46484 1.45605,-0.68652 1.95508,-0.6582 0.49219,0.0244 0.9082,0.22461 1.22949,0.62012 0.32715,0.3916 0.56543,0.93066 0.70801,1.61914 z"
             style="fill:#231f20;fill-opacity:1;fill-rule:nonzero;stroke:none"
             id="path8555" /><path
             d="m 380.38672,-365.05273 c 0,0 0.0352,12.61132 0.0352,12.61132 0,0 -2.74512,1.58496 -2.74512,1.58496 0,0 -0.0361,-12.61132 -0.0361,-12.61132 0,0 2.74609,-1.58496 2.74609,-1.58496 z"
             style="fill:#231f20;fill-opacity:1;fill-rule:nonzero;stroke:none"
             id="path8557" /><path
             d="m 390.9082,-371.12793 c 0,0 0.0352,12.61133 0.0352,12.61133 0,0 -2.59082,1.49707 -2.59082,1.49707 0,0 -3.34668,-5.00586 -3.34668,-5.00586 0,0 0.0195,6.92578 0.0195,6.92578 0,0 -2.5918,1.49707 -2.5918,1.49707 0,0 -0.0361,-12.61133 -0.0361,-12.61133 0,0 2.57324,-1.48633 2.57324,-1.48633 0,0 3.36524,5.03809 3.36524,5.03809 0,0 -0.0195,-6.96973 -0.0195,-6.96973 0,0 2.59179,-1.49609 2.59179,-1.49609 z"
             style="fill:#231f20;fill-opacity:1;fill-rule:nonzero;stroke:none"
             id="path8559" /><path
             d="m 397.19629,-374.96484 c 0.9834,-0.56739 1.71777,-0.85938 2.2041,-0.89063 0.49219,-0.0342 0.89551,0.12988 1.2168,0.47363 0.32715,0.33985 0.56543,0.87891 0.7334,1.59766 0,0 -2.66114,2.19727 -2.66114,2.19727 -0.10937,-0.40625 -0.2959,-0.65918 -0.55859,-0.75684 -0.25586,-0.10352 -0.58789,-0.0352 -0.99609,0.2002 -0.60059,0.34667 -1.07911,0.91601 -1.43457,1.71679 -0.35547,0.80078 -0.53223,1.83594 -0.52832,3.12012 0.004,1.35644 0.18554,2.22949 0.55078,2.60644 0.35937,0.37403 0.86425,0.375 1.50879,0.003 0.30761,-0.17675 0.60058,-0.41308 0.875,-0.69531 0.28027,-0.28711 0.59863,-0.68359 0.95507,-1.19824 0,0 -0.003,-1.18164 -0.003,-1.18164 0,0 -1.83886,1.06152 -1.83886,1.06152 0,0 -0.007,-2.61914 -0.007,-2.61914 0,0 4.25195,-2.45508 4.25195,-2.45508 0,0 0.0156,5.36328 0.0156,5.36328 -0.80957,1.25293 -1.52344,2.19434 -2.14746,2.8418 -0.625,0.63965 -1.36524,1.21387 -2.22071,1.70801 -1.05371,0.6084 -1.91601,0.84961 -2.58105,0.72656 -0.66602,-0.12988 -1.17871,-0.59179 -1.5459,-1.39355 -0.37305,-0.79102 -0.55469,-1.83985 -0.55859,-3.14551 -0.004,-1.37988 0.19043,-2.68262 0.58984,-3.93457 0.39356,-1.24805 0.97852,-2.3584 1.74903,-3.3252 0.5996,-0.75683 1.40917,-1.43066 2.43066,-2.0205 z"
             style="fill:#231f20;fill-opacity:1;fill-rule:nonzero;stroke:none"
             id="path8561" /><path
             d="m 410.11328,-382.2168 c 0,0 0.0352,12.61133 0.0352,12.61133 0,0 -2.74512,1.58594 -2.74512,1.58594 0,0 -0.0352,-12.61231 -0.0352,-12.61231 0,0 2.74512,-1.58496 2.74512,-1.58496 z"
             style="fill:#231f20;fill-opacity:1;fill-rule:nonzero;stroke:none"
             id="path8563" /><path
             d="m 420.63477,-388.29199 c 0,0 0.0361,12.61133 0.0361,12.61133 0,0 -2.59277,1.49707 -2.59277,1.49707 0,0 -3.34571,-5.00586 -3.34571,-5.00586 0,0 0.0195,6.92675 0.0195,6.92675 0,0 -2.59765,1.5 -2.59765,1.5 0,0 -0.0361,-12.61132 -0.0361,-12.61132 0,0 2.57911,-1.48926 2.57911,-1.48926 0,0 3.36523,5.03808 3.36523,5.03808 0,0 -0.0195,-6.96972 -0.0195,-6.96972 0,0 2.5918,-1.49707 2.5918,-1.49707 z"
             style="fill:#231f20;fill-opacity:1;fill-rule:nonzero;stroke:none"
             id="path8565" /><path
             d="m 425.32129,-390.99805 c 0,0 0.0352,12.61231 0.0352,12.61231 0,0 -2.74415,1.58496 -2.74415,1.58496 0,0 -0.0361,-12.61231 -0.0361,-12.61231 0,0 2.74512,-1.58496 2.74512,-1.58496 z"
             style="fill:#231f20;fill-opacity:1;fill-rule:nonzero;stroke:none"
             id="path8567" /><path
             d="m 435.04492,-396.6123 c 0,0 0.009,3.11035 0.009,3.11035 0,0 -2.81543,1.62597 -2.81543,1.62597 0,0 0.0264,9.50098 0.0264,9.50098 0,0 -2.75098,1.58887 -2.75098,1.58887 0,0 -0.0273,-9.50098 -0.0273,-9.50098 0,0 -2.81543,1.625 -2.81543,1.625 0,0 -0.009,-3.11035 -0.009,-3.11035 0,0 8.38281,-4.83984 8.38281,-4.83984 z"
             style="fill:#231f20;fill-opacity:1;fill-rule:nonzero;stroke:none"
             id="path8569" /><path
             d="m 439.15723,-398.98633 c 0,0 0.0351,12.61133 0.0351,12.61133 0,0 -2.75195,1.58984 -2.75195,1.58984 0,0 -0.0361,-12.6123 -0.0361,-12.6123 0,0 2.75293,-1.58887 2.75293,-1.58887 z"
             style="fill:#231f20;fill-opacity:1;fill-rule:nonzero;stroke:none"
             id="path8571" /><path
             d="m 457.69824,-409.69141 c 0,0 0.009,3.11036 0.009,3.11036 0,0 -2.81543,1.625 -2.81543,1.625 0,0 0.0264,9.50195 0.0264,9.50195 0,0 -2.75195,1.58887 -2.75195,1.58887 0,0 -0.0274,-9.50098 -0.0274,-9.50098 0,0 -2.80859,1.62207 -2.80859,1.62207 0,0 -0.009,-3.11035 -0.009,-3.11035 0,0 8.37695,-4.83692 8.37695,-4.83692 z"
             style="fill:#231f20;fill-opacity:1;fill-rule:nonzero;stroke:none"
             id="path8573" /><path
             d="m 444.09473,-394.02637 c 0,0 1.9414,-1.12109 1.9414,-1.12109 0,0 -0.97754,-3.97656 -0.97754,-3.97656 0,0 -0.96386,5.09765 -0.96386,5.09765 m 2.5,-9.25488 c 0,0 3.35547,10.69531 3.35547,10.69531 0,0 -2.87305,1.65918 -2.87305,1.65918 0,0 -0.45313,-1.83301 -0.45313,-1.83301 0,0 -3.10254,1.792 -3.10254,1.792 0,0 -0.44726,2.35156 -0.44726,2.35156 0,0 -2.80957,1.62207 -2.80957,1.62207 0,0 3.3164,-14.54688 3.3164,-14.54688 0,0 3.01368,-1.74023 3.01368,-1.74023 z"
             style="fill:#231f20;fill-opacity:1;fill-rule:nonzero;stroke:none"
             id="path8575" /><path
             d="m 461.80957,-412.06543 c 0,0 0.0352,12.61133 0.0352,12.61133 0,0 -2.75098,1.58887 -2.75098,1.58887 0,0 -0.0361,-12.61133 -0.0361,-12.61133 0,0 2.75195,-1.58887 2.75195,-1.58887 z"
             style="fill:#231f20;fill-opacity:1;fill-rule:nonzero;stroke:none"
             id="path8577" /><path
             d="m 472.56738,-418.27734 c 0,0 -3.27148,14.52148 -3.27148,14.52148 0,0 -2.98828,1.72559 -2.98828,1.72559 0,0 -3.40039,-10.66993 -3.40039,-10.66993 0,0 2.87304,-1.6582 2.87304,-1.6582 0,0 2.03711,7.91406 2.03711,7.91406 0,0 1.95996,-10.22265 1.95996,-10.22265 0,0 2.79004,-1.61035 2.79004,-1.61035 z"
             style="fill:#231f20;fill-opacity:1;fill-rule:nonzero;stroke:none"
             id="path8579" /><path
             d="m 480.8291,-423.04736 c 0,0 0.008,2.6997 0.008,2.6997 0,0 -4.61035,2.66114 -4.61035,2.66114 0,0 0.006,1.98925 0.006,1.98925 0,0 4.27735,-2.46972 4.27735,-2.46972 0,0 0.008,2.57519 0.008,2.57519 0,0 -4.27832,2.46973 -4.27832,2.46973 0,0 0.008,2.49414 0.008,2.49414 0,0 4.74414,-2.73926 4.74414,-2.73926 0,0 0.008,2.85449 0.008,2.85449 0,0 -7.48925,4.32325 -7.48925,4.32325 0,0 -0.0352,-12.61133 -0.0352,-12.61133 0,0 7.35449,-4.24658 7.35449,-4.24658 z"
             style="fill:#231f20;fill-opacity:1;fill-rule:nonzero;stroke:none"
             id="path8581" /></g></g></g></g></svg>