<?xml version="1.0" encoding="UTF-8" standalone="no"?>
<!DOCTYPE svg PUBLIC "-//W3C//DTD SVG 1.0//EN"
 "http://www.w3.org/TR/2001/REC-SVG-20010904/DTD/svg10.dtd" [
 <!ATTLIST svg xmlns:xlink CDATA #FIXED "http://www.w3.org/1999/xlink">
]>
<!-- Generated by Graphviz version 2.20.2 (Mon Mar 30 10:09:11 UTC 2009)
     For user: (moz) Moritz Wissenbach,,, -->
<!-- Title: _anonymous_0 Pages: 1 -->
<svg width="413pt" height="335pt"
 viewBox="0.00 0.00 413.00 335.00" xmlns="http://www.w3.org/2000/svg" xmlns:xlink="http://www.w3.org/1999/xlink">
<g id="graph0" class="graph" transform="scale(1 1) rotate(0) translate(4 331)">
<title>_anonymous_0</title>
<polygon style="fill:white;stroke:white;" points="-4,4 -4,-331 409,-331 409,4 -4,4"/>
<g id="cluster2" class="cluster"><title>cluster_D1</title>
<polygon style="fill:none;stroke:black;" points="237,-242 237,-319 397,-319 397,-242 237,-242"/>
<text text-anchor="middle" x="317" y="-302.9" style="font-family:Times New Roman;font-size:14.00;">D1</text>
</g>
<g id="cluster3" class="cluster"><title>cluster_H2</title>
<polygon style="fill:none;stroke:black;" points="8,-129 8,-206 352,-206 352,-129 8,-129"/>
<text text-anchor="middle" x="180" y="-189.9" style="font-family:Times New Roman;font-size:14.00;">H2</text>
</g>
<g id="cluster4" class="cluster"><title>cluster_H3</title>
<polygon style="fill:none;stroke:black;" points="8,-16 8,-93 280,-93 280,-16 8,-16"/>
<text text-anchor="middle" x="144" y="-76.9" style="font-family:Times New Roman;font-size:14.00;">H3</text>
</g>
<!-- #D1diary -->
<g id="node2" class="node"><title>#D1diary</title>
<polygon style="fill:none;stroke:black;" points="389,-286 245,-286 245,-250 389,-250 389,-286"/>
<text text-anchor="start" x="253.5" y="-264.733" style="font-family:Times New Roman;font-size:14.00;">Diary Entry on D1</text>
</g>
<!-- #H2 -->
<g id="node4" class="node"><title>#H2</title>
<polygon style="fill:none;stroke:black;" points="344,-173 290,-173 290,-137 344,-137 344,-173"/>
<text text-anchor="middle" x="317" y="-150.9" style="font-family:Times New Roman;font-size:14.00;">H2</text>
</g>
<!-- #D1diary&#45;&gt;#H2 -->
<g id="edge5" class="edge"><title>#D1diary&#45;&gt;#H2</title>
<path style="fill:none;stroke:black;stroke-dasharray:1,5;" d="M317,-250C317,-232 317,-204 317,-183"/>
<polygon style="fill:black;stroke:black;" points="320.5,-183 317,-173 313.5,-183 320.5,-183"/>
<text text-anchor="middle" x="351" y="-218.9" style="font-family:Times New Roman;font-size:14.00;">motivates</text>
</g>
<!-- #H2thethickbilled -->
<g id="node5" class="node"><title>#H2thethickbilled</title>
<polygon style="fill:none;stroke:black;" points="142,-173 16,-173 16,-137 142,-137 142,-173"/>
<text text-anchor="start" x="24.5" y="-151.733" style="font-family:Times New Roman;font-size:14.00;">The Thick&#45;billed</text>
</g>
<!-- #H3thethickbilled -->
<g id="node8" class="node"><title>#H3thethickbilled</title>
<polygon style="fill:none;stroke:black;" points="142,-60 16,-60 16,-24 142,-24 142,-60"/>
<text text-anchor="start" x="24.5" y="-38.7333" style="font-family:Times New Roman;font-size:14.00;">The Thick&#45;billed</text>
</g>
<!-- #H2thethickbilled&#45;&gt;#H3thethickbilled -->
<g id="edge7" class="edge"><title>#H2thethickbilled&#45;&gt;#H3thethickbilled</title>
<path style="fill:none;stroke:black;" d="M79,-137C79,-119 79,-91 79,-70"/>
<polygon style="fill:black;stroke:black;" points="82.5001,-70 79,-60 75.5001,-70 82.5001,-70"/>
<text text-anchor="middle" x="110" y="-105.9" style="font-family:Times New Roman;font-size:14.00;">precedes</text>
</g>
<!-- #H2thisisalarge -->
<g id="node6" class="node"><title>#H2thisisalarge</title>
<polygon style="fill:none;stroke:black;" points="272,-173 160,-173 160,-137 272,-137 272,-173"/>
<text text-anchor="start" x="168.5" y="-151.733" style="font-family:Times New Roman;font-size:14.00;">This is a large</text>
</g>
<!-- #H3thisisalarge -->
<g id="node9" class="node"><title>#H3thisisalarge</title>
<polygon style="fill:none;stroke:black;" points="272,-60 160,-60 160,-24 272,-24 272,-60"/>
<text text-anchor="start" x="168.5" y="-38.7333" style="font-family:Times New Roman;font-size:14.00;">This is a large</text>
</g>
<!-- #H2thisisalarge&#45;&gt;#H3thisisalarge -->
<g id="edge9" class="edge"><title>#H2thisisalarge&#45;&gt;#H3thisisalarge</title>
<path style="fill:none;stroke:black;" d="M216,-137C216,-119 216,-91 216,-70"/>
<polygon style="fill:black;stroke:black;" points="219.5,-70 216,-60 212.5,-70 219.5,-70"/>
<text text-anchor="middle" x="246" y="-105.9" style="font-family:Times New Roman;font-size:14.00;">precedes</text>
</g>
</g>
</svg>
