<?xml version="1.0" encoding="UTF-8"?>
<!DOCTYPE svg
  PUBLIC "-//W3C//DTD SVG 1.0//EN" "http://www.w3.org/TR/2001/REC-SVG-20010904/DTD/svg10.dtd">
<svg xmlns="http://www.w3.org/2000/svg" width="100%" height="100%" version="1.1">
   <line x1="370" y1="50" x2="250" y2="180" style="stroke:black;stroke-width:1"/>
   <line x1="250" y1="180" x2="130" y2="310" style="stroke:black;stroke-width:1"/>
   <line x1="250" y1="180" x2="370" y2="310" style="stroke:black;stroke-width:1"/>
   <line x1="370" y1="50" x2="610" y2="180" style="stroke:black;stroke-width:1"/>
   <line x1="130" y1="310" x2="70" y2="440" style="stroke:black;stroke-width:1"/>
   <line x1="130" y1="310" x2="190" y2="440" style="stroke:black;stroke-width:1"/>
   <line x1="370" y1="310" x2="310" y2="440" style="stroke:black;stroke-width:1"/>
   <line x1="370" y1="310" x2="430" y2="440" style="stroke:black;stroke-width:1"/>
   <line x1="610" y1="180" x2="550" y2="440" style="stroke:black;stroke-width:1"/>
   <line x1="610" y1="180" x2="670" y2="440" style="stroke:black;stroke-width:1"/>
   <line x1="610" y1="180" x2="430" y2="440"
         style="fill:none; stroke-dasharray: 9, 5; stroke:black;stroke-width:1"/>
   <ellipse cx="70" cy="440" rx="50" ry="30"
            style="fill:cyan;                     stroke:black;stroke-width:2"/>
   <text x="70" y="445" fill="black" text-anchor="middle"
         font-family="Bookman Old Style">L</text>
   <ellipse cx="190" cy="440" rx="50" ry="30"
            style="fill:orchid;                     stroke:black;stroke-width:2"/>
   <text x="190" y="445" fill="black" text-anchor="middle"
         font-family="Bookman Old Style">t</text>
   <ellipse cx="310" cy="440" rx="50" ry="30"
            style="fill:cyan;                     stroke:black;stroke-width:2"/>
   <text x="310" y="445" fill="black" text-anchor="middle"
         font-family="Bookman Old Style">R</text>
   <ellipse cx="430" cy="440" rx="50" ry="30"
            style="fill:cyan;                     stroke:black;stroke-width:2"/>
   <text x="430" y="445" fill="black" text-anchor="middle"
         font-family="Bookman Old Style">A</text>
   <ellipse cx="550" cy="440" rx="50" ry="30"
            style="fill:cyan;                     stroke:black;stroke-width:2"/>
   <text x="550" y="445" fill="black" text-anchor="middle"
         font-family="Bookman Old Style">I</text>
   <ellipse cx="670" cy="440" rx="50" ry="30"
            style="fill:cyan;                     stroke:black;stroke-width:2"/>
   <text x="670" y="445" fill="black" text-anchor="middle"
         font-family="Bookman Old Style">X</text>
   <ellipse cx="370" cy="50" rx="50" ry="30"
            style="fill:goldenrod;                 stroke:black;stroke-width:2"/>
   <text x="370" y="55" fill="black" text-anchor="middle"
         font-family="Bookman Old Style">α</text>
   <ellipse cx="250" cy="180" rx="50" ry="30"
            style="fill:goldenrod;                     stroke:black;stroke-width:2"/>
   <text x="250" y="185" fill="black" text-anchor="middle"
         font-family="Bookman Old Style">β</text>
   <ellipse cx="130" cy="310" rx="50" ry="30"
            style="fill:goldenrod;                     stroke:black;stroke-width:2"/>
   <text x="130" y="315" fill="black" text-anchor="middle"
         font-family="Bookman Old Style">δ</text>
   <ellipse cx="370" cy="310" rx="50" ry="30"
            style="fill:goldenrod;                     stroke:black;stroke-width:2"/>
   <text x="370" y="315" fill="black" text-anchor="middle"
         font-family="Bookman Old Style">ε</text>
   <ellipse cx="610" cy="180" rx="50" ry="30"
            style="fill:goldenrod;                     stroke:black;stroke-width:2"/>
   <text x="610" y="185" fill="black" text-anchor="middle"
         font-family="Bookman Old Style">γ</text>
</svg>